<?xml version="1.0" encoding="UTF-8"?>
<svg xmlns="http://www.w3.org/2000/svg" xmlns:xlink="http://www.w3.org/1999/xlink" viewBox="0 0 1024 1024">
  <defs>
    <style>
      .cls-1, .cls-2, .cls-3, .cls-4 {
        fill: #fff;
      }

      .cls-1, .cls-5, .cls-3, .cls-6, .cls-7, .cls-4, .cls-8 {
        stroke-miterlimit: 10;
      }

      .cls-1, .cls-5, .cls-3, .cls-7, .cls-4, .cls-8 {
        stroke: #000;
      }

      .cls-1, .cls-4 {
        stroke-width: 3px;
      }

      .cls-3 {
        stroke-width: 2px;
      }

      .cls-9 {
        fill: gray;
      }

      .cls-6 {
        stroke: #fff;
      }

      .cls-6, .cls-7, .cls-8 {
        fill: none;
        stroke-width: 7px;
      }

      .cls-10 {
        clip-path: url(#clippath);
      }

      .cls-7 {
        opacity: .97;
      }

      .cls-4 {
        stroke-linecap: round;
      }
    </style>
    <clipPath id="clippath">
      <path class="cls-2" d="M614.21,288.42c79.69,38.14,134.73,119.52,134.73,213.75,0,130.8-106.03,236.84-236.83,236.84s-236.83-106.04-236.83-236.84c0-102.51,65.13-189.81,156.28-222.77-8.12,8.46-17.04,18.74-25.91,30.98-6.31,8.69-16.15,23.29-25.65,42.62-8.06,16.4-17.73,40.01-24,70,21.39-2.86,43.41-6.17,66-10,23.8-4.03,46.81-8.39,69-13-3.19-24.28-8.18-51.14-15.88-79.86.09-.1.18-.2.26-.31,21.78-2.61,45.65-6.53,71.12-12.33,24.8-5.65,47.42-12.23,67.71-19.08Z"/>
    </clipPath>
  </defs>
  <g id="Layer_5_copy">
    <g id="Layer_6_copy">
      <g id="Ring_copy">
        <path class="cls-6" d="M959.65,662.43c-12.18,38.44-268.05-3.37-463.34-61.13-204.43-60.47-444.9-168.73-433.75-207.99,10.78-37.98,256.64-10.42,462.5,49.84,219.36,64.21,446.67,181.19,434.59,219.29Z"/>
      </g>
    </g>
    <path class="cls-9" d="M496.74,352.18l9.97,60.35-148.24,24.49-9.97-60.35c25.33-3.37,51.36-7.24,78.01-11.69,24.06-4.01,47.48-8.3,70.23-12.8Z"/>
    <g>
      <path class="cls-2" d="M614.21,288.42c79.69,38.14,134.73,119.52,134.73,213.75,0,130.8-106.03,236.84-236.83,236.84s-236.83-106.04-236.83-236.84c0-102.51,65.13-189.81,156.28-222.77-8.12,8.46-17.04,18.74-25.91,30.98-6.31,8.69-16.15,23.29-25.65,42.62-8.06,16.4-17.73,40.01-24,70,21.39-2.86,43.41-6.17,66-10,23.8-4.03,46.81-8.39,69-13-3.19-24.28-8.18-51.14-15.88-79.86.09-.1.18-.2.26-.31,21.78-2.61,45.65-6.53,71.12-12.33,24.8-5.65,47.42-12.23,67.71-19.08Z"/>
      <g class="cls-10">
        <path class="cls-8" d="M266.5,515.5c56.87,6.85,143.84,10.57,246-12,98.63-21.79,173.81-59.79,222-89"/>
        <path class="cls-8" d="M271.5,597.5c42.05,13.88,140.25,40.01,261,13,114.17-25.54,189.16-85.3,222-115"/>
        <path class="cls-8" d="M330.5,664.5c32.26,13.29,118.94,43.94,227,21,92.18-19.57,152.76-68.13,179-92"/>
        <path class="cls-8" d="M283.5,422.5c57.73-.03,129.83-4.93,211-22,80.23-16.88,147.52-41.06,200-64"/>
        <path class="cls-8" d="M669.5,683.5c8.8-34.29,23.71-111.49-2-204-26.17-94.18-80.28-153.25-105.7-177.89"/>
        <path class="cls-8" d="M560.5,737.5c-11.5-53.3-22.83-106.64-34-160-12.2-58.29-24.2-116.62-36-175"/>
        <path class="cls-8" d="M436.5,729.5c-22.36-26.04-65.2-83.26-81-168-11.08-59.39-4.58-109.25,2-140"/>
      </g>
    </g>
    <path class="cls-7" d="M291.5,422.5c18.05-.21,41.18-.94,68-3,26.44-2.03,74.23-6.7,131.5-18.5,49.69-10.24,116.22-27.84,192.5-59.5"/>
  </g>
  <g id="ADMIN">
    <g id="Layer_8">
      <path class="cls-1" d="M461.75,485.67l-20.83-27.53-4.19-1.88-.02-3.18-14.81-17.01c-.08-.06-.81-.58-1.77-.45-.97.09-1.58.77-1.65.84l-11.07,19.75.58,3.09-3.65,2.68-14.45,30.43c-.07.33-.69,3.28.89,5.16,1.66,1.97,5.05,1.97,7.71-.51l7.61-17.94c5.95-.58,11.92-1.17,17.92-1.76l.34-.03,18.17-1.78,11.29,16.45c3.23,1.99,6.73,1.36,8.05-.94,1.26-2.2.03-5.06-.11-5.38ZM423.59,469.47l-.33.03-13.02,1.32,11.31-20.64,15.2,17.96c-4.4.44-8.79.89-13.16,1.33Z"/>
    </g>
  </g>
  <g id="ALIEN">
    <g>
      <g>
        <path class="cls-3" d="M504.63,667.69c-1.54-4.16-8-7.14-13.21-9.55-5.47-2.53-10.22-3.58-13.09-4.05-.31-1.46-1.83-7.55-8.67-12.61,0,0-7.79-5.73-17.75-5.46-.53.01-2.39.09-3.43.19-1.04.06-2.82.28-3.31.35-8.7,1.18-11.81,7.06-11.81,7.06-2.55,4.88-.63,10.14-.13,11.4-1.88.49-4.72,1.5-7.25,3.67-2.29,1.98-5,4.31-4.15,7.53,1.23,4.65,9.27,8.65,12.19,10.1,2.06,1.03,3.69,1.62,5.12,2.13,2.84,1.03,6.83,2.22,13.82,3.23,2.71.39,6.06.78,9.96,1.02,4,.28,7.48.33,10.35.3,7.88-.1,12.22-.91,15.32-1.72,1.6-.42,3.47-.91,5.65-1.89,3.18-1.43,12.62-5.68,10.4-11.7ZM436.05,670.99c-2.04-.07-4.13-1.65-4.69-3.53s.59-3.39,2.61-3.37,4.2,1.6,4.78,3.53-.63,3.44-2.7,3.37ZM458.99,670.07c2.4.07,4.89,1.81,5.54,3.9.65,2.09-.81,3.69-3.23,3.57s-4.8-1.87-5.43-3.91.75-3.63,3.11-3.56ZM473.63,658.19c-.32,1.03-1.32,1.85-2.55,2.21-1.12.34-2.48.28-3.67.57-.99.23-1.83.69-2.41,1.3-.62.61-1.01,1.38-1.68,1.94-1.07.94-3.08,1.14-4.84,1.11-1.25,0-2.5,0-3.77-.14-4.52-.44-5.19-3.45-9.19-4.24-.96-.2-1.87-.19-2.82-.38-1.44-.22-3.31-1.35-3.97-2.36-1.29-2.3-2.17-6.59-1.07-9.88.61-1.77,1.75-3.32,3.34-4.42,1.78-1.25,3.88-2.26,6.21-2.73,2.29-.41,4.63-.54,7.21-.19,3.62.58,7.56,1.79,10.8,3.95,4.69,2.99,7.43,8.06,8.3,11.52.17.61.29,1.15.12,1.71v.02ZM486.97,672.67c-2.78-.09-5.58-1.95-6.27-4.15s.94-3.95,3.69-3.92,5.69,1.88,6.42,4.14c.73,2.26-1.01,4.02-3.83,3.93Z"/>
        <path class="cls-3" d="M463.72,652.7c-.29-.8-.47-1.69-1.02-2.46-1.57-2.14-3.99-3.16-6.03-3.84-2.12-.71-4.35-.7-4.99-.61-.57.04-1.01.02-1.63.11-2.67.35-5.94,2.03-6.24,4.86-.09.83.27,1.64.49,2.47.35,1.19.71,2.35,1.18,3.86.11.4.33.8.71,1.11,1.25,1.07,2.78,2.7,3.67,3.91.2.26.4.5.66.73.98.92,2.34,1.66,3.68,1.95,1.21.36,2.35.51,3.5.49.96.03,1.98-.05,2.79-.35,1.13-.25,2.16-.86,2.66-1.71.22-.34.35-.69.41-1.09.14-1,.54-2.29,1.04-3.35.17-.45.55-.82.56-1.32-.32-1.62-1.06-3.48-1.41-4.7v-.03Z"/>
      </g>
      <path class="cls-5" d="M453.34,656.61c.91.82,1.38,1.24,1.53,1.83.14.55,0,1.17-.49,1.51-.78.54-2.1.11-2.9-.16-.73-.24-1.21-.52-1.99-.98-1.43-.84-2.14-1.26-2.45-1.95-.35-.78-.03-1.49.05-1.65.08-.17.22-.46.53-.67,1.03-.68,3,.15,3.26.26.86.37,1.39.85,2.46,1.8Z"/>
      <path class="cls-5" d="M456.41,656.57c-.41.84-.61,1.27-.39,1.86.2.55.72,1.17,1.44,1.51,1.14.54,2.23.09,2.9-.18.61-.25.94-.55,1.48-1.04.99-.9,1.49-1.35,1.37-2.08-.13-.83-.96-1.55-1.14-1.71-.2-.18-.54-.47-1.02-.67-1.54-.65-3.07.29-3.26.41-.65.41-.89.9-1.37,1.89Z"/>
    </g>
  </g>
  <g id="BATTLECRUISER">
    <g>
      <path class="cls-1" d="M564.75,400.43l-.87.24-.87.24-15.95,46.87,1.45,5.28,16.4,2.85,9.99-24.61,23.07,13.55,9.93-11.16-2.1-4.73-41.06-28.55Z"/>
      <polygon class="cls-1" points="579.14 443.08 569.07 465.54 569.79 467.82 587.99 461.48 601.68 456.7 600.81 454.56 579.14 443.08"/>
    </g>
  </g>
  <g id="BATTLESHIP">
    <g id="Layer_12">
      <path class="cls-1" d="M336.74,630.53c.7,6.72,1.42,13.6,2.16,20.65,5.09,3.48,10.21,6.99,15.38,10.52,1.59-2.81,3.17-5.6,4.72-8.35-7.58-7.77-15-15.38-22.26-22.83Z"/>
    </g>
  </g>
  <g id="CARRIER">
    <g>
      <path class="cls-1" d="M617.73,598.28c-7.38,18.29-14.37,35.62-21,52.05,5.86.95,11.65,1.89,17.35,2.81l16.76-6.91c5.12-5.38,10.3-10.84,15.55-16.36-9.03-9.95-18.56-20.47-28.65-31.59Z"/>
      <path class="cls-1" d="M608.31,639.69c1.79-2.73,3.6-5.47,5.42-8.24,2.33,1.06,4.65,2.11,6.95,3.15"/>
      <path class="cls-1" d="M623.14,633.58c1.85-2.75,3.71-5.51,5.58-8.3,2.27,1.08,4.53,2.16,6.76,3.22"/>
      <path class="cls-1" d="M609.21,647.36c1.77-2.65,3.55-5.33,5.34-8.02,2.29,1.01,4.57,2.01,6.83,3.01"/>
      <path class="cls-1" d="M623.81,641.34c1.82-2.67,3.65-5.37,5.5-8.08,2.23,1.03,4.45,2.06,6.65,3.08"/>
    </g>
  </g>
  <g id="CRUISER">
    <g id="Layer_15">
      <path class="cls-4" d="M522.25,358.83l9.06-33.24,30.58,20.68,5.39,6.39-3.39,6.82-5.81,1.98-11.52-4.56-3.41,1.11-5.53,10.41-6.33,2.15-8.49-3.21s-.87-6.58-.56-8.52Z"/>
    </g>
  </g>
  <g id="DREADNOUGHT">
    <path class="cls-1" d="M325.14,488.08l-17.23-43.11c-.04-.07-.4-.72-1.05-.67-.07,0-.66.07-1.06.84-5.14,12.89-10.1,25.34-14.89,37.36l4.48,6.87-1.49,2-.06,2.3,7.96,1.86,3.14,4.9,1.1.28,1.11.29,3.48-3.41,9.86,2.3v-2.72s-1.92-3.09-1.92-3.09l6.56-6Z"/>
  </g>
  <g id="FIGHTER">
    <polygon class="cls-3" points="503.96 724.14 478.02 706 477.75 706 466.56 721.8 469.18 728.9 479.74 715.2 480.71 713.84 482.71 715.3 506.81 732.28 503.96 724.14"/>
  </g>
  <g id="Layer_18">
    <path class="cls-1" d="M465.07,543.96l-24.93,2.27-11.54-7.96-6.43,9.6-23.03,2.1-5.99,17.55,8.22,26.38,8.56,5.32-4.53-14.78,10.52-22.3,10.15-.79,1.74,6.05-5.81.42-8.61,19.68c1.27,4.21,2.53,8.39,3.79,12.55,18.84-.79,38.37-1.6,58.63-2.45-1.15-4.4-2.3-8.83-3.46-13.29l-20.64-18.65-4.56.33-1.69-6.17,9.19-.72,24.61,21.09,4.05,15.87,6.38-6.45-7.19-28.77-17.42-16.9ZM442.61,566.34l-10.41.75-1.73-6.08,10.47-.82,1.66,6.14Z"/>
  </g>
  <g id="FRIGATE">
    <polygon class="cls-1" points="308.5 541 307.67 541.17 301.76 580.44 307.25 585.8 309.88 586.35 316.11 578.27 327.98 590.2 331.76 591 338.09 586.64 308.5 541"/>
  </g>
  <g id="MINER">
    <g id="Layer_21">
      <g>
        <polygon class="cls-3" points="703.6 500.81 699.86 482.6 709.14 452.73 710.18 452.16 727.26 464.16 731.34 479.39 730.87 479.75 723.95 475.01 708.1 486.4 704.22 500.34 703.6 500.81"/>
        <polygon class="cls-3" points="707.32 508.37 711.81 491.19 723.47 482.37 731.95 488.09 707.32 508.37"/>
      </g>
    </g>
  </g>
  <g id="SUPER_CAPITAL">
    <g id="Layer_23">
      <g>
        <polygon class="cls-1" points="633.19 537.41 611.63 516.73 603.22 519.77 595.65 522.5 586.74 525.72 576.42 560.97 589.94 563.78 587.6 569.64 596.85 571.58 601.31 564.82 605.65 562.91 613.08 559.64 617.24 557.81 623.38 559.68 629.1 551.46 625.11 548.67 633.19 537.41"/>
        <polygon class="cls-4" points="588.79 519.13 607.22 512.66 594.76 502.11 588.79 519.13"/>
      </g>
    </g>
  </g>
  <g id="TITAN">
    <g>
      <polygon class="cls-3" points="670.73 398.04 674.07 366.28 697.57 384.63 679.87 378.46 670.73 398.04"/>
      <polygon class="cls-3" points="706.53 399.73 709.52 393.11 681.37 381.14 681.22 381.2 681.02 381.28 667.23 420.71 678.18 419.58 687.04 393.48 706.53 399.73"/>
      <path class="cls-3" d="M680.5,425.02l8.19-28.05,19.89,6.78-7.64,5.79c.01.67-.03,2.44-1.01,4.31-.67,1.28-1.5,2.08-2,2.5-.61.43-1.55.97-2.74,1.25-2.04.49-3.64-.05-4.4-.38l-10.28,7.79Z"/>
    </g>
  </g>
</svg>